/* XPM */
static char * icon_xpm[] = {
"64 64 6 1",
" 	c #FFFFFFFFFFFF",
".	c #000000000000",
"X	c #71C682079248",
"o	c #A289B6DACF3C",
"O	c #CF3CCF3CCF3C",
"+	c #FFFF00000000",
"  .Xo.                                             .XooooooX.   ",
"  .Xo.                                             .Xo ooooX.   ",
"  .Xo.    .o o. ..... o...o  o.                    .XooooooX.   ",
"  .Xo.    o.o.o   o.o .o o.  ..                    .Xo ooooX.   ",
"  .Xo.     o.o   o.o  o...o   .                    .XooooooX.   ",
"  .Xo.    o.o.o o.o   .o o.  o.o                   .Xo ooooX.   ",
"  .Xo. o  .o o. ..... o...o  ...                 o .XooooooX.   ",
"  .Xo.                                             .Xo ooooX.   ",
"  .Xo. o           O O O O O O O O O O           o .Xoo.X.oX.   ",
"  .Xo.           O                     O           .Xo.o o.o.   ",
"  .Xo. o       O  O O O O O O O O O O O  O       o .XoX....X.   ",
"  .Xo. o     O                     O O O O O    o  .Xo.o o.X.   ",
"  .Xo. o  .....                           O  O   o .XoX....X.   ",
"  .Xo. o  . X .O O O O O O O O O O         O   Ooo .Xo.o o.X.   ",
"  .Xo. oo .  X. O O O O O O O O O             O  o .XoX....X.   ",
"  .Xo. o  . X .                  O         O O  oo .Xo.o o.X.   ",
"  .Xo. oo .....                               Oo o .Xoo...Xo.   ",
" o.Xo. o o   O                   O         O  o oX .XoooXXoo.   ",
"o..Xo.. o o   O O O O O O O O O O o.ooo....o o oo .Xoo.X.X.o.   ",
"...Xoo.  o o o                   o.ooXXX..... ooX .Xo X. ..X.   ",
"...Xooo.  ooooooo o o            .............   .Xooo.o o.X.   ",
".o.Xoooo..                       .ooo.o....... ..Xooo X . .X.   ",
". .Xooooo.......................o.o........... XXooo o.o o.X.   ",
"o .XoooooooXoXoXoXoXoXoXoXoXoXo .............. oo o o X....X.   ",
"  .ooo oo o o o o o o o o o o o .............. o o ooooXXXXX.   ",
"  ............................. .............. ..............   ",
"   ooXoXoXoXoX                  .XXXXX........   XoXoXoXoXoo    ",
"  O ooooXoXoX ................................... XoXoXoooo O   ",
"  OO oooooooo .o...............................X. oooooooo OO   ",
"  O O ooooooo .X   X .   .. . .  X.X.X.X.X.X.X.o. ooooooo O O   ",
"  OO         ..X X  X  X X X   .X.X.X.X.X.X.X.X.X.         OO   ",
"  O O O O    .   .  X X   .  X X................o.    O O O O   ",
"  OO        o. XX..X..X.XXX.XX.X................X.o        OO   ",
".o  O       .  ..................................o.       O O   ",
"....o o...... X..................................X.o       OO   ",
"o.......oo..  X...................................o.        O   ",
" O o........ X.++.+.+..+..........................X.o      OO   ",
"  O O O O .  ..++X+X++X+X..........................X.       O   ",
"  OO O O  .     oooXoXoXXXXX...........XXXXXXXXXoooo.           ",
"  O     ...   ooooXoXoXX.....................XXXoooo.       O   ",
"  O o...oo...........................................o          ",
"   ........    oooooXXXXXXX.XXX.XX.X.X..............X.      O   ",
"  o.o O O. o........................................X.o         ",
"  ...O Oo. ..   .   .   .  .  .  .   .  . o . . o....o.         ",
"   ..   . ..o.o. . . . .  ..o . . . o. .o. . o . o...X.o        ",
"o...o Oo.o............................................o.        ",
"..o  O . ..o    . .  .  .   . . .  .o  .   .   .   ...X.o       ",
"O O O o.o.o . ..oo. o . . . .   .o . . . .  ..  . . ...o.       ",
" O    . ...............................................X.o      ",
"     o.o...o   .    .   .   . .  .  .   .    .   o.   ..o.      ",
"     . ...o . . o. .  . . . . .o . o. .  . .. .   . .o .X.o     ",
"    o.o..................................................o.     ",
"    . ..     o    .   .o  .    .   .   .    .   .    o...X.o    ",
"   o.o. o.  . .  . . .  . . .. . .  . . . . . .  . .. o...o.    ",
"   . ..    o     . o .   .     .    .   .    .    .    ...X.o   ",
"   .o.....................................................o.o   ",
"   . o o o ooXoX.X.X......X.X.X.....X.X.X...X..X.......XXoX.o   ",
"   o........................................................    ",
"     .....................................................      ",
"    ooXoXoXoXoXoXoXoXoXoXoXoXoXoXoXoXoXoXoXoXoXoXoXoXoXoXoo     ",
"     ooooooooooooooooooooooooooooooooooooooooooooooooooooo  O   ",
"   O  ooooooooooooooooooooooooooooooooooooooooooooooooooo  O    ",
"   OOO O                                                O OOO   ",
"   OO O O                                              O O O    "};
